PathFileType	4	(X/Y/Z)	C:/Users/beibeiliu/ov580/test_trc/User1\sequence.7_training_dense_right.trc
DataRate	CameraRate	NumFrames	NumMarkers	Units	OrigDataRate	OrigDataStartFrame	OrigNumFrames
120	120	20	19	mm	120	37	295
Frame#	Time	ThumbCMC			ThumbMCP			ThumbIP			ThumbTip			IndexMCP			IndexPIP			IndexTip			MiddleMCP			MiddlePIP			MiddleTip			RingMCP			RingPIP			RingTip			PinkyMCP			PinkyPIP			PinkyTip			BackHand1			BackHand2			BackHand3	
		X0	Y0	Z0	X1	Y1	Z1	X2	Y2	Z2	X3	Y3	Z3	X4	Y4	Z4	X5	Y5	Z5	X6	Y6	Z6	X7	Y7	Z7	X8	Y8	Z8	X9	Y9	Z9	X10	Y10	Z10	X11	Y11	Z11	X12	Y12	Z12	X13	Y13	Z13	X14	Y14	Z14	X15	Y15	Z15	X16	Y16	Z16	X17	Y17	Z17	X18	Y18	Z18	
36	0.3	153.309	132.012	10.5984	121.077	139.304	-9.51069	102.87	138.315	-37.4237	85.3313	128.34	-52.3849	169.603	113.782	-68.2137	164.232	117.284	-95.9392	145.19	115.451	-117.891	137.37	100.793	-71.8969	105.223	108.069	-68.1287	100.706	116.112	-27.6433	122.719	79.099	-56.1979	92.9213	95.8197	-44.1961	96.3906	103.678	-12.5128	118.131	60.1089	-39.7868	93.8884	81.6687	-30.9408	102.807	97.9076	-9.50399	166.485	69.4849	-10.2938	174.688	69.4978	21.1483	181.241	100.266	5.35815	
37	0.308333	151.847	130.634	14.7457	119.191	140.522	-9.36349	100.614	137.339	-37.3356	83.677	124.468	-52.4804	167.653	113.52	-66.3904	161.345	111.995	-95.3163	142.188	118.238	-118.983	136.692	96.3807	-71.7605	103.199	104.501	-67.1442	100.845	111.022	-27.598	122.568	76.8007	-56.8262	92.2608	94.4365	-44.2344	95.2747	103.625	-15.1066	115.592	59.1837	-40.0137	94.203	79.863	-31.0027	105.888	96.7044	-6.34024	167.634	66.9283	-9.0191	174.062	65.2452	21.7038	180.145	99.9743	0.147852	
38	0.316667	152.097	131.306	15.1116	119.227	138.784	-9.31406	100.91	135.136	-35.9354	82.9248	123.643	-49.2264	166.824	111.716	-69.8647	158.419	112.778	-97.8256	132.91	115.484	-116.277	136.273	91.7264	-70.0461	104.239	105.579	-68.4415	100.68	114.322	-28.0285	119.688	78.6	-56.9486	92.1726	89.944	-46.3847	95.6994	102.617	-14.3644	117.978	58.381	-38.8786	94.1766	74.6947	-32.8942	103.646	93.6946	-7.95267	165.701	67.3698	-8.38151	174.22	68.319	22.1555	181.166	98.4995	1.48378	
39	0.325	150.285	134.529	14.774	117.542	136.144	-12.8535	100.926	130.274	-34.6798	82.1728	120.138	-47.6389	165.384	113.804	-63.9794	156.783	112.913	-95.6332	127.38	117.492	-111.693	135.445	94.861	-71.7575	101.016	104.093	-66.1494	100.923	110.81	-27.2549	116.831	75.2405	-55.7784	91.4098	91.4681	-43.5601	97.7229	101.039	-11.052	117.619	60.7698	-39.4932	93.38	76.7408	-29.7781	105.471	91.744	-2.75384	164.742	64.3504	-8.78676	172.271	65.5441	26.3191	180.741	100.194	1.75622	
40	0.333333	149.77	132.893	12.172	116.205	135.352	-9.33456	97.7766	131.38	-31.9253	81.8812	116.405	-47.9556	164.168	112.533	-65.2785	149.347	108.76	-94.8828	114.813	116.815	-103.5	134.167	89.3226	-69.4468	102.503	102.048	-68.1305	99.5703	110.385	-27.6355	118.736	71.7496	-52.3094	90.6747	89.5062	-41.7444	95.6479	96.7915	-9.92551	113.846	55.7641	-36.9148	91.4807	74.6696	-26.2503	103.745	89.0231	0.111807	164.583	66.5643	-9.2817	173.997	65.6786	25.2341	177.122	97.463	3.41428	
41	0.341667	148.734	130.565	13.741	114.537	136.922	-6.78327	97.7581	128.163	-32.1053	79.0075	113.093	-48.5446	162.006	112.877	-66.1768	143.521	109.421	-94.702	112.193	118.449	-95.8992	131.405	91.8122	-71.3181	98.7801	99.1519	-65.2839	99.7832	106.577	-25.4066	114.676	72.6227	-53.3365	90.0834	88.4809	-42.433	99.1389	95.3604	-6.63473	114.77	54.3058	-35.1523	93.4649	77.0065	-24.6281	103.687	87.3198	0.5694	165.316	64.6812	-7.15724	170.886	66.2906	23.131	177.575	100.988	4.0055	
42	0.35	147.968	129.238	13.4957	114.137	134.611	-5.84113	95.3277	129.049	-32.0245	77.39	112.886	-49.0689	157.809	108.449	-68.2145	139.435	107.078	-91.4782	107.345	117.578	-86.6947	129.943	88.8437	-70.7004	99.0315	97.284	-67.4194	97.5203	107.522	-27.3223	116.933	75.4399	-52.4665	88.797	88.489	-38.845	97.8018	97.6553	-9.57256	113.311	54.0789	-34.9904	90.414	72.8884	-25.7304	105.814	87.3845	2.39969	164.835	65.5964	-7.13077	171.286	65.2751	23.1218	176.038	100.734	1.01742	
43	0.358333	147.046	132.065	14.9081	114.228	132.934	-5.83512	96.1263	128.437	-28.675	79.5905	114.468	-44.4207	157.256	108.537	-62.8599	134.61	111.032	-92.6616	106.046	120.617	-81.9648	133.635	90.8102	-66.6222	99.4349	102.811	-67.4574	96.8213	109.989	-29.8547	117.996	74.1859	-52.7854	89.104	90.0647	-36.8945	99.2555	92.5533	-7.17942	111.863	55.2525	-36.4401	92.7849	75.4056	-25.2307	106.685	85.6281	2.08468	164.52	66.8705	-6.70435	172.811	66.2382	23.3998	175.528	97.8815	5.62362	
44	0.366667	146.701	127.457	13.0841	114.897	133.146	-4.71467	96.4499	128.539	-27.5112	78.6049	114.506	-44.6592	157.476	109.351	-67.8038	136.423	110.002	-90.7497	103.802	119.334	-75.3808	131.633	92.605	-68.758	98.0978	100.395	-65.6536	98.2809	110.008	-27.8919	113.612	75.5213	-53.0936	88.6308	91.0142	-36.4388	100.957	93.0987	-7.26081	113.795	59.9938	-35.4206	91.9115	75.5141	-22.465	109.519	86.9426	-0.0221978	164.321	65.3094	-10.8669	170.911	65.9014	27.3533	176.19	100.005	5.96459	
45	0.375	146.821	128.458	14.3033	113.855	134.756	-7.62758	95.4165	131.784	-30.5023	76.8003	115.286	-47.755	157.217	107.845	-62.4289	136.419	110.403	-90.1558	104.596	123.001	-75.4598	133.002	93.5464	-68.6531	100.408	103.199	-69.0098	98.5619	109.611	-28.0124	118.393	76.4091	-51.7355	89.0601	91.0457	-36.9535	101.105	95.462	-6.68326	110.438	57.8259	-36.2987	93.3979	75.9198	-25.9501	106.418	85.4089	4.71049	163.514	68.6539	-8.14217	172.2	63.5288	27.9069	176.69	102.75	2.90888	
46	0.383333	147.007	132.424	14.6132	115.445	135.245	-6.3097	94.934	131.582	-32.0569	79.8916	117.226	-43.7917	158.452	112.268	-63.8628	137.806	107.612	-90.0382	104.081	120.319	-78.0447	132.898	92.7667	-67.3418	99.2456	103.971	-66.2573	99.0554	109.437	-27.5758	118.755	76.9581	-51.9101	89.5243	91.5582	-36.8016	102.378	96.085	-6.19589	109.81	56.9303	-36.3725	91.3871	76.0505	-19.7871	109.69	87.2392	1.35969	161.471	64.493	-10.869	172.419	64.3171	23.3222	176.424	99.2869	3.80646	
47	0.391667	149.194	129.128	17.8373	114.847	138.14	-6.14726	96.3765	134.625	-28.5061	81.8002	115.914	-44.6023	160.237	113.623	-62.2476	141.007	106.257	-91.8054	110.421	119.177	-90.9369	130.719	90.8299	-67.7179	97.2547	104.037	-62.529	100.054	112.286	-24.1347	118.398	75.2451	-50.8264	88.3603	88.861	-33.8645	101.093	95.8348	-6.23945	112.174	58.1533	-34.9398	94.9915	77.7896	-23.5966	109.734	89.1275	1.34649	164.705	64.1724	-7.48109	174.396	67.444	27.5801	177.873	100.671	7.55293	
48	0.4	148.991	131.681	16.3289	115.127	138.684	-4.65708	96.2378	132.702	-29.9877	79.6843	119.274	-42.7844	161.135	110.178	-67.5196	149.828	110.609	-92.8859	116.947	112.043	-101.434	129.985	90.5612	-67.4151	98.4793	103.734	-63.5447	98.8381	111.156	-24.0221	117.683	76.9041	-51.8217	89.5843	88.2944	-37.7792	103.191	94.417	-2.33747	114.218	56.3828	-33.5783	91.0936	73.6766	-21.9035	109.18	88.5986	0.818208	164.516	64.6008	-5.69747	174.588	65.0531	24.926	178.644	100.657	5.73387	
49	0.408333	149.112	130.029	13.8689	114.88	136.454	-9.93006	95.9441	133.617	-27.557	79.2311	116.952	-44.5455	160.176	111.767	-64.3341	148.411	110.165	-96.5262	122.063	111.232	-112.899	133.652	94.4902	-65.4084	95.4028	100.662	-59.9296	97.149	108.662	-24.5496	115.088	73.7746	-50.378	89.9718	90.261	-37.2245	101.414	96.097	-2.11232	116.762	58.343	-34.2098	92.4935	73.2322	-21.7169	107.737	89.3956	0.928108	165.284	65.5889	-8.75947	173.891	69.3578	24.3833	179.746	100.87	5.12634	
50	0.416667	148.14	133.81	12.0667	113.089	138.849	-6.92886	95.7913	132.726	-26.7058	77.5349	116.89	-45.3864	162.063	114.933	-66.707	154.005	112.983	-95.1332	135.427	110.071	-116.561	129.235	94.977	-68.1391	98.3657	103.338	-62.3871	96.4807	104.472	-22.1608	115.796	72.8108	-49.7944	89.6859	87.4616	-35.8839	100.06	94.2768	-1.14046	115.333	58.1694	-33.6628	95.696	77.042	-23.5109	107.787	86.3956	4.1948	166.418	68.8556	-11.6439	176.714	69.4895	23.0033	178.687	100.609	5.97429	
51	0.425	148.972	135.577	15.7637	115.379	136.751	-8.97247	97.0425	130.699	-26.5019	78.9426	116.5	-44.111	161.549	113.249	-63.7088	154.847	111.431	-90.6505	143.062	111.595	-118.045	133.062	93.399	-64.8968	98.6361	102.578	-62.7948	96.679	110.638	-21.4398	117.106	71.6827	-48.6467	89.4623	91.4939	-33.6775	98.812	95.6081	-1.01005	114.415	58.7019	-33.9369	93.7796	72.7749	-22.2999	111.485	90.0646	4.79367	166.89	68.1793	-11.0878	175.964	66.3168	25.3584	180.932	102.822	4.67545	
52	0.433333	150.555	135.666	13.9709	114.618	139.175	-6.9746	97.4686	130.048	-27.747	78.0662	119.504	-42.4357	160.559	113.309	-67.6215	156.748	114.659	-93.9447	145.622	106.749	-120.627	130.623	92.593	-67.0526	99.2182	104.399	-62.565	95.8986	107.045	-22.0428	116.101	76.0966	-49.6764	90.1072	89.6063	-34.6532	97.8611	97.2946	-1.24478	116.514	58.7749	-33.0838	95.7074	76.7494	-22.32	110.476	91.9444	2.47994	167.467	66.2494	-9.11751	177.09	71.6344	27.9549	179.325	101.326	4.75003	
53	0.441667	151.141	135.407	14.6381	115.31	141.284	-5.98309	97.2889	133.737	-24.9591	77.5563	118.369	-44.5169	161.475	114.091	-64.109	156.996	111.163	-89.1582	148.936	106.093	-115.247	133.051	95.2586	-65.7567	95.978	102.971	-59.9468	94.4617	106.992	-22.7852	114.683	74.2206	-49.1094	89.3878	87.8839	-34.7592	98.2926	101.881	-2.56369	116.194	56.5046	-31.2625	93.6499	73.5089	-20.9582	109.078	94.2098	0.755335	168.736	66.9843	-6.69075	178.062	71.0379	26.4849	182.189	104.354	3.64811	
54	0.45	151.424	132.473	15.0156	117.817	137.714	-3.93631	97.8766	132.439	-27.6739	79.4151	121.424	-40.2758	161.735	112.558	-68.0291	158.268	112.573	-94.1392	152.175	107.309	-115.73	130.905	94.3522	-66.5028	96.2568	103.871	-58.9614	94.5899	111.268	-24.3641	115.747	77.3715	-48.774	89.0093	86.8629	-34.0674	94.5034	99.4325	-4.21217	113.312	58.8301	-32.2617	95.509	77.4974	-19.5791	112.243	93.8546	6.06679	167.523	69.7321	-9.67554	177.456	69.6294	27.1499	182.194	103.813	1.02636	
55	0.458333	151.142	132.273	13.5556	117.74	136.971	-7.96351	97.8468	133.993	-25.531	79.843	118.253	-42.5358	161.81	115.621	-66.9464	157.473	111.382	-92.3928	152.203	107.278	-115.191	131.053	94.335	-65.8738	97.6277	103.748	-60.4657	96.1951	109.58	-20.1762	117.69	73.6804	-47.9277	89.7867	93.3161	-34.2547	93.7338	97.8672	-1.75058	116.257	58.8991	-31.9377	93.8306	76.8717	-18.6213	110.829	96.1129	1.70913	168.389	68.3244	-10.3488	176.932	71.0449	27.1535	181.463	106.836	1.44755	
